<svg width="195" height="92" viewBox="0 0 195 92" fill="none" xmlns="http://www.w3.org/2000/svg">
<path d="M5.848 71V10.8H30.014C36.2633 10.8 41.022 12.262 44.29 15.186C47.6153 18.0527 49.278 21.7507 49.278 26.28C49.278 30.064 48.246 33.1027 46.182 35.396C44.1753 37.632 41.71 39.1513 38.786 39.954C42.226 40.642 45.064 42.362 47.3 45.114C49.536 47.8087 50.654 50.962 50.654 54.574C50.654 59.3327 48.934 63.26 45.494 66.356C42.054 69.452 37.1807 71 30.874 71H5.848ZM16.856 36.084H28.38C31.476 36.084 33.8553 35.3673 35.518 33.934C37.1807 32.5007 38.012 30.4653 38.012 27.828C38.012 25.3053 37.1807 23.3273 35.518 21.894C33.9127 20.4033 31.476 19.658 28.208 19.658H16.856V36.084ZM16.856 62.056H29.154C32.422 62.056 34.9447 61.3107 36.722 59.82C38.5567 58.272 39.474 56.122 39.474 53.37C39.474 50.5607 38.528 48.3533 36.636 46.748C34.744 45.1427 32.1927 44.34 28.982 44.34H16.856V62.056ZM59.8439 71V9.08H70.8519V71H59.8439ZM102.568 72.032C98.4398 72.032 94.7131 71.086 91.3878 69.194C88.1198 67.302 85.5111 64.6933 83.5618 61.368C81.6698 57.9853 80.7238 54.0867 80.7238 49.672C80.7238 45.2573 81.6984 41.3873 83.6478 38.062C85.5971 34.6793 88.2058 32.042 91.4738 30.15C94.7991 28.258 98.5258 27.312 102.654 27.312C106.724 27.312 110.394 28.258 113.662 30.15C116.987 32.042 119.596 34.6793 121.488 38.062C123.437 41.3873 124.412 45.2573 124.412 49.672C124.412 54.0867 123.437 57.9853 121.488 61.368C119.596 64.6933 116.987 67.302 113.662 69.194C110.336 71.086 106.638 72.032 102.568 72.032ZM102.568 62.486C105.434 62.486 107.928 61.4253 110.05 59.304C112.171 57.1253 113.232 53.9147 113.232 49.672C113.232 45.4293 112.171 42.2473 110.05 40.126C107.928 37.9473 105.463 36.858 102.654 36.858C99.7298 36.858 97.2071 37.9473 95.0858 40.126C93.0218 42.2473 91.9898 45.4293 91.9898 49.672C91.9898 53.9147 93.0218 57.1253 95.0858 59.304C97.2071 61.4253 99.7011 62.486 102.568 62.486ZM149.627 58.272C147.563 58.272 145.642 58.0427 143.865 57.584L140.683 60.766C141.657 61.282 142.976 61.712 144.639 62.056C146.301 62.4 148.996 62.744 152.723 63.088C158.399 63.604 162.527 64.9513 165.107 67.13C167.687 69.3087 168.977 72.3187 168.977 76.16C168.977 78.6827 168.289 81.062 166.913 83.298C165.537 85.5913 163.415 87.426 160.549 88.802C157.682 90.2353 154.013 90.952 149.541 90.952C143.463 90.952 138.561 89.8053 134.835 87.512C131.108 85.276 129.245 81.8933 129.245 77.364C129.245 73.5227 131.108 70.1973 134.835 67.388C133.688 66.872 132.685 66.3273 131.825 65.754C131.022 65.1807 130.305 64.5787 129.675 63.948V61.97L137.157 54.058C133.831 51.134 132.169 47.3787 132.169 42.792C132.169 39.9253 132.857 37.3167 134.233 34.966C135.666 32.6153 137.673 30.752 140.253 29.376C142.833 28 145.957 27.312 149.627 27.312C152.035 27.312 154.271 27.656 156.335 28.344H172.503V35.052L165.193 35.568C166.339 37.7467 166.913 40.1547 166.913 42.792C166.913 45.6587 166.225 48.2673 164.849 50.618C163.473 52.9687 161.466 54.832 158.829 56.208C156.249 57.584 153.181 58.272 149.627 58.272ZM149.627 49.844C151.863 49.844 153.697 49.242 155.131 48.038C156.621 46.834 157.367 45.114 157.367 42.878C157.367 40.642 156.621 38.922 155.131 37.718C153.697 36.514 151.863 35.912 149.627 35.912C147.276 35.912 145.384 36.514 143.951 37.718C142.517 38.922 141.801 40.642 141.801 42.878C141.801 45.114 142.517 46.834 143.951 48.038C145.384 49.242 147.276 49.844 149.627 49.844ZM139.307 76.246C139.307 78.3673 140.281 79.944 142.231 80.976C144.237 82.0653 146.674 82.61 149.541 82.61C152.293 82.61 154.529 82.0367 156.249 80.89C157.969 79.8007 158.829 78.31 158.829 76.418C158.829 74.87 158.255 73.58 157.109 72.548C156.019 71.516 153.812 70.8853 150.487 70.656C148.136 70.484 145.957 70.226 143.951 69.882C142.288 70.7993 141.084 71.8027 140.339 72.892C139.651 73.9813 139.307 75.0993 139.307 76.246Z" fill="white"/>
<rect y="78" width="120" height="10" fill="white"/>
<circle cx="185.5" cy="82.5" r="8" fill="#C8F9E4" stroke="white" stroke-width="3"/>
</svg>
