<svg width="345" height="97" viewBox="0 0 345 97" fill="none" xmlns="http://www.w3.org/2000/svg">
<path d="M33.11 72.032C27.0327 72.032 21.8153 70.742 17.458 68.162C13.1007 65.5247 9.74667 61.884 7.396 57.24C5.04533 52.5387 3.87 47.1207 3.87 40.986C3.87 34.8513 5.04533 29.4333 7.396 24.732C9.74667 20.0307 13.1007 16.3613 17.458 13.724C21.8153 11.0867 27.0327 9.768 33.11 9.768C40.334 9.768 46.2393 11.574 50.826 15.186C55.47 18.7407 58.3653 23.7573 59.512 30.236H47.386C46.6407 26.968 45.0353 24.4167 42.57 22.582C40.162 20.69 36.9513 19.744 32.938 19.744C27.3767 19.744 23.0193 21.636 19.866 25.42C16.7127 29.204 15.136 34.3927 15.136 40.986C15.136 47.5793 16.7127 52.768 19.866 56.552C23.0193 60.2787 27.3767 62.142 32.938 62.142C36.9513 62.142 40.162 61.282 42.57 59.562C45.0353 57.7847 46.6407 55.348 47.386 52.252H59.512C58.3653 58.444 55.47 63.2887 50.826 66.786C46.2393 70.2833 40.334 72.032 33.11 72.032ZM89.4662 72.032C85.3382 72.032 81.6115 71.086 78.2862 69.194C75.0182 67.302 72.4095 64.6933 70.4602 61.368C68.5682 57.9853 67.6222 54.0867 67.6222 49.672C67.6222 45.2573 68.5969 41.3873 70.5462 38.062C72.4955 34.6793 75.1042 32.042 78.3722 30.15C81.6975 28.258 85.4242 27.312 89.5522 27.312C93.6229 27.312 97.2922 28.258 100.56 30.15C103.886 32.042 106.494 34.6793 108.386 38.062C110.336 41.3873 111.31 45.2573 111.31 49.672C111.31 54.0867 110.336 57.9853 108.386 61.368C106.494 64.6933 103.886 67.302 100.56 69.194C97.2349 71.086 93.5369 72.032 89.4662 72.032ZM89.4662 62.486C92.3329 62.486 94.8269 61.4253 96.9482 59.304C99.0695 57.1253 100.13 53.9147 100.13 49.672C100.13 45.4293 99.0695 42.2473 96.9482 40.126C94.8269 37.9473 92.3615 36.858 89.5522 36.858C86.6282 36.858 84.1055 37.9473 81.9842 40.126C79.9202 42.2473 78.8882 45.4293 78.8882 49.672C78.8882 53.9147 79.9202 57.1253 81.9842 59.304C84.1055 61.4253 86.5995 62.486 89.4662 62.486ZM121.153 71V28.344H130.871L131.731 35.568C133.049 33.0453 134.941 31.0387 137.407 29.548C139.929 28.0573 142.882 27.312 146.265 27.312C151.539 27.312 155.639 28.9747 158.562 32.3C161.486 35.6253 162.948 40.4987 162.948 46.92V71H151.941V47.952C151.941 44.2827 151.195 41.4733 149.705 39.524C148.214 37.5747 145.892 36.6 142.739 36.6C139.643 36.6 137.091 37.6893 135.085 39.868C133.135 42.0467 132.161 45.0853 132.161 48.984V71H121.153ZM192.481 71C188.009 71 184.425 69.9107 181.731 67.732C179.036 65.5533 177.689 61.6833 177.689 56.122V37.546H170.379V28.344H177.689L178.979 16.906H188.697V28.344H200.221V37.546H188.697V56.208C188.697 58.272 189.127 59.7053 189.987 60.508C190.904 61.2533 192.452 61.626 194.631 61.626H199.963V71H192.481ZM224.378 72.032C220.709 72.032 217.699 71.4587 215.348 70.312C212.997 69.108 211.249 67.5313 210.102 65.582C208.955 63.6327 208.382 61.4827 208.382 59.132C208.382 55.176 209.93 51.9653 213.026 49.5C216.122 47.0347 220.766 45.802 226.958 45.802H237.794V44.77C237.794 41.846 236.963 39.696 235.3 38.32C233.637 36.944 231.573 36.256 229.108 36.256C226.872 36.256 224.923 36.8007 223.26 37.89C221.597 38.922 220.565 40.47 220.164 42.534H209.414C209.701 39.438 210.733 36.7433 212.51 34.45C214.345 32.1567 216.695 30.408 219.562 29.204C222.429 27.9427 225.639 27.312 229.194 27.312C235.271 27.312 240.059 28.8313 243.556 31.87C247.053 34.9087 248.802 39.2087 248.802 44.77V71H239.428L238.396 64.12C237.135 66.4133 235.357 68.3053 233.064 69.796C230.828 71.2867 227.933 72.032 224.378 72.032ZM226.872 63.432C230.025 63.432 232.462 62.4 234.182 60.336C235.959 58.272 237.077 55.7207 237.536 52.682H228.162C225.238 52.682 223.145 53.2267 221.884 54.316C220.623 55.348 219.992 56.638 219.992 58.186C219.992 59.8487 220.623 61.1387 221.884 62.056C223.145 62.9733 224.808 63.432 226.872 63.432ZM280.205 72.032C275.847 72.032 272.006 71.086 268.681 69.194C265.355 67.302 262.718 64.6647 260.769 61.282C258.877 57.8993 257.931 54.0293 257.931 49.672C257.931 45.3147 258.877 41.4447 260.769 38.062C262.718 34.6793 265.355 32.042 268.681 30.15C272.006 28.258 275.847 27.312 280.205 27.312C285.651 27.312 290.238 28.7453 293.965 31.612C297.691 34.4213 300.071 38.32 301.103 43.308H289.493C288.919 41.244 287.773 39.6387 286.053 38.492C284.39 37.288 282.412 36.686 280.119 36.686C277.08 36.686 274.5 37.8327 272.379 40.126C270.257 42.4193 269.197 45.6013 269.197 49.672C269.197 53.7427 270.257 56.9247 272.379 59.218C274.5 61.5113 277.08 62.658 280.119 62.658C282.412 62.658 284.39 62.0847 286.053 60.938C287.773 59.7913 288.919 58.1573 289.493 56.036H301.103C300.071 60.852 297.691 64.722 293.965 67.646C290.238 70.57 285.651 72.032 280.205 72.032ZM329.291 71C324.819 71 321.236 69.9107 318.541 67.732C315.847 65.5533 314.499 61.6833 314.499 56.122V37.546H307.189V28.344H314.499L315.789 16.906H325.507V28.344H337.031V37.546H325.507V56.208C325.507 58.272 325.937 59.7053 326.797 60.508C327.715 61.2533 329.263 61.626 331.441 61.626H336.773V71H329.291Z" fill="black"/>
<rect x="3" y="82" width="309" height="10" fill="black"/>
<circle cx="335.5" cy="87.5" r="7" fill="white" stroke="#082AA4" stroke-width="5"/>
</svg>
