<svg width="48" height="48" viewBox="0 0 48 48" fill="none" xmlns="http://www.w3.org/2000/svg">
<path d="M17.25 42.75C17.25 42.75 15.75 36.75 18.75 33.75C18.75 33.75 12.75 33.75 8.25 29.25C3.75 24.75 5.25 15.75 8.25 12.75C6.75 8.25 9.75 5.25 9.75 5.25C9.75 5.25 14.25 5.25 17.25 8.25C20.25 6.75 27.75 6.75 30.75 8.25C33.75 5.25 38.25 5.25 38.25 5.25C38.25 5.25 41.25 8.25 39.75 12.75C42.75 15.75 44.25 24.75 39.75 29.25C35.25 33.75 29.25 33.75 29.25 33.75C32.25 36.75 30.75 42.75 30.75 42.75M15.75 41.25C11.25 42.75 6.75 39.75 5.25 38.25" stroke="white" stroke-width="1.5" stroke-linecap="round" stroke-linejoin="round"/>
</svg>
