<svg width="40" height="40" viewBox="0 0 40 40" fill="none" xmlns="http://www.w3.org/2000/svg">
<g clip-path="url(#clip0_175_361)">
<path fill-rule="evenodd" clip-rule="evenodd" d="M20.0005 0.833496C15.2525 0.83596 10.6603 2.51759 7.04482 5.5777C3.42939 8.63781 1.02655 12.8768 0.265948 17.5368C-0.49465 22.1968 0.436585 26.9739 2.89316 31.0138C5.34973 35.0537 9.17144 38.0931 13.6749 39.5885C14.6685 39.7729 15.0427 39.1571 15.0427 38.6335C15.0427 38.1099 15.0228 36.5919 15.0162 34.9322C9.45237 36.1341 8.27668 32.5843 8.27668 32.5843C7.36925 30.2792 6.05777 29.6733 6.05777 29.6733C4.2429 28.4417 6.19356 28.4648 6.19356 28.4648C8.20383 28.6064 9.2603 30.5163 9.2603 30.5163C11.0421 33.5557 13.9399 32.6765 15.0791 32.1628C15.258 30.8753 15.7779 29.9993 16.3509 29.5021C11.9064 29.0016 7.23677 27.2958 7.23677 19.6759C7.20922 17.6997 7.94674 15.7886 9.29673 14.338C9.09139 13.8374 8.40584 11.8156 9.49211 9.06921C9.49211 9.06921 11.1712 8.53576 14.993 11.1076C18.2712 10.2162 21.7298 10.2162 25.0079 11.1076C28.8264 8.53576 30.5022 9.06921 30.5022 9.06921C31.5918 11.809 30.9063 13.8308 30.7009 14.338C32.0552 15.7888 32.7942 17.7032 32.7642 19.6825C32.7642 27.3188 28.0846 29.0016 23.6335 29.4922C24.3489 30.1113 24.9881 31.3198 24.9881 33.177C24.9881 35.8378 24.9649 37.9782 24.9649 38.6335C24.9649 39.1637 25.3259 39.7827 26.3393 39.5885C30.8433 38.0929 34.6654 35.053 37.1219 31.0124C39.5784 26.9718 40.5092 22.194 39.7477 17.5336C38.9863 12.8732 36.5822 8.63409 32.9656 5.57451C29.349 2.51492 24.7556 0.834398 20.0071 0.833496H20.0005Z" fill="white"/>
<path d="M7.5741 29.3866C7.53105 29.4853 7.37208 29.515 7.24292 29.4458C7.11376 29.3767 7.01773 29.2482 7.06409 29.1462C7.11046 29.0441 7.26611 29.0177 7.39527 29.0869C7.52443 29.156 7.62378 29.2878 7.5741 29.3866Z" fill="white"/>
<path d="M8.38546 30.2856C8.31688 30.3199 8.23841 30.3295 8.1635 30.3127C8.08858 30.2959 8.02188 30.2537 7.9748 30.1934C7.84564 30.0551 7.81913 29.8641 7.91849 29.7784C8.01784 29.6928 8.19669 29.7323 8.32585 29.8707C8.45501 30.009 8.48482 30.1999 8.38546 30.2856Z" fill="white"/>
<path d="M9.1737 31.4281C9.05116 31.5138 8.84251 31.4281 8.7266 31.2569C8.69454 31.2262 8.66906 31.1894 8.65164 31.1486C8.63423 31.1079 8.62524 31.0641 8.62524 31.0198C8.62524 30.9756 8.63423 30.9317 8.65164 30.891C8.66906 30.8503 8.69454 30.8134 8.7266 30.7827C8.84913 30.7004 9.05779 30.7827 9.1737 30.9507C9.28961 31.1186 9.29293 31.3425 9.1737 31.4281Z" fill="white"/>
<path d="M10.2434 32.5347C10.1341 32.6566 9.91219 32.6237 9.73004 32.459C9.54789 32.2944 9.50482 32.0704 9.61411 31.9519C9.7234 31.8333 9.9453 31.8663 10.1341 32.0276C10.3228 32.189 10.3593 32.4162 10.2434 32.5347Z" fill="white"/>
<path d="M11.7437 33.1802C11.694 33.3349 11.4688 33.4041 11.2436 33.3382C11.0184 33.2724 10.8694 33.0879 10.9124 32.9299C10.9555 32.7718 11.184 32.6994 11.4125 32.7718C11.641 32.8443 11.7868 33.0188 11.7437 33.1802Z" fill="white"/>
<path d="M13.3797 33.2923C13.3797 33.4536 13.1943 33.5919 12.9558 33.5952C12.7174 33.5985 12.522 33.4668 12.522 33.3055C12.522 33.1441 12.7074 33.0058 12.9459 33.0025C13.1843 32.9992 13.3797 33.1276 13.3797 33.2923Z" fill="white"/>
<path d="M14.9031 33.0384C14.9329 33.1997 14.7673 33.3677 14.5288 33.4072C14.2904 33.4467 14.0817 33.3512 14.0519 33.1931C14.0221 33.0351 14.1944 32.8638 14.4262 32.821C14.658 32.7782 14.8733 32.877 14.9031 33.0384Z" fill="white"/>
</g>
<defs>
<clipPath id="clip0_175_361">
<rect width="40" height="40" fill="white"/>
</clipPath>
</defs>
</svg>
