<svg width="345" height="97" viewBox="0 0 345 97" fill="none" xmlns="http://www.w3.org/2000/svg">
<path d="M5.848 71V10.8H28.122C32.938 10.8 36.9227 11.6027 40.076 13.208C43.2293 14.8133 45.58 17.0207 47.128 19.83C48.676 22.6393 49.45 25.7927 49.45 29.29C49.45 32.6153 48.7047 35.6827 47.214 38.492C45.7233 41.244 43.4013 43.48 40.248 45.2C37.0947 46.8627 33.0527 47.694 28.122 47.694H16.856V71H5.848ZM16.856 38.75H27.434C31.2753 38.75 34.0273 37.9187 35.69 36.256C37.41 34.536 38.27 32.214 38.27 29.29C38.27 26.3087 37.41 23.9867 35.69 22.324C34.0273 20.604 31.2753 19.744 27.434 19.744H16.856V38.75ZM57.8283 71V28.344H67.6323L68.6643 36.342C70.2123 33.59 72.3049 31.4113 74.9423 29.806C77.6369 28.1433 80.7903 27.312 84.4023 27.312V38.922H81.3063C78.8983 38.922 76.7483 39.2947 74.8563 40.04C72.9643 40.7853 71.4736 42.0753 70.3843 43.91C69.3523 45.7447 68.8363 48.296 68.8363 51.564V71H57.8283ZM111.638 72.032C107.51 72.032 103.783 71.086 100.458 69.194C97.1901 67.302 94.5814 64.6933 92.6321 61.368C90.7401 57.9853 89.7941 54.0867 89.7941 49.672C89.7941 45.2573 90.7687 41.3873 92.7181 38.062C94.6674 34.6793 97.2761 32.042 100.544 30.15C103.869 28.258 107.596 27.312 111.724 27.312C115.795 27.312 119.464 28.258 122.732 30.15C126.057 32.042 128.666 34.6793 130.558 38.062C132.507 41.3873 133.482 45.2573 133.482 49.672C133.482 54.0867 132.507 57.9853 130.558 61.368C128.666 64.6933 126.057 67.302 122.732 69.194C119.407 71.086 115.709 72.032 111.638 72.032ZM111.638 62.486C114.505 62.486 116.999 61.4253 119.12 59.304C121.241 57.1253 122.302 53.9147 122.302 49.672C122.302 45.4293 121.241 42.2473 119.12 40.126C116.999 37.9473 114.533 36.858 111.724 36.858C108.8 36.858 106.277 37.9473 104.156 40.126C102.092 42.2473 101.06 45.4293 101.06 49.672C101.06 53.9147 102.092 57.1253 104.156 59.304C106.277 61.4253 108.771 62.486 111.638 62.486ZM149.43 21.722C147.424 21.722 145.761 21.12 144.442 19.916C143.181 18.712 142.55 17.1927 142.55 15.358C142.55 13.5233 143.181 12.0327 144.442 10.886C145.761 9.682 147.424 9.08 149.43 9.08C151.437 9.08 153.071 9.682 154.332 10.886C155.651 12.0327 156.31 13.5233 156.31 15.358C156.31 17.1927 155.651 18.712 154.332 19.916C153.071 21.12 151.437 21.722 149.43 21.722ZM135.24 89.92V80.546H138.594C140.486 80.546 141.834 80.1733 142.636 79.428C143.439 78.6827 143.84 77.4213 143.84 75.644V28.344H154.848V75.644C154.848 80.804 153.53 84.4733 150.892 86.652C148.312 88.8307 144.786 89.92 140.314 89.92H135.24ZM187.062 72.032C182.762 72.032 178.949 71.1147 175.624 69.28C172.299 67.4453 169.69 64.8653 167.798 61.54C165.906 58.2147 164.96 54.3733 164.96 50.016C164.96 45.6013 165.877 41.674 167.712 38.234C169.604 34.794 172.184 32.128 175.452 30.236C178.777 28.2867 182.676 27.312 187.148 27.312C191.333 27.312 195.031 28.2293 198.242 30.064C201.453 31.8987 203.947 34.4213 205.724 37.632C207.559 40.7853 208.476 44.3113 208.476 48.21C208.476 48.8407 208.447 49.5 208.39 50.188C208.39 50.876 208.361 51.5927 208.304 52.338H175.882C176.111 55.6633 177.258 58.272 179.322 60.164C181.443 62.056 183.995 63.002 186.976 63.002C189.212 63.002 191.075 62.5147 192.566 61.54C194.114 60.508 195.261 59.1893 196.006 57.584H207.186C206.383 60.2787 205.036 62.744 203.144 64.98C201.309 67.1587 199.016 68.8787 196.264 70.14C193.569 71.4013 190.502 72.032 187.062 72.032ZM187.148 36.256C184.453 36.256 182.074 37.03 180.01 38.578C177.946 40.0687 176.627 42.362 176.054 45.458H197.296C197.124 42.6487 196.092 40.4127 194.2 38.75C192.308 37.0873 189.957 36.256 187.148 36.256ZM238.633 72.032C234.275 72.032 230.434 71.086 227.109 69.194C223.783 67.302 221.146 64.6647 219.197 61.282C217.305 57.8993 216.359 54.0293 216.359 49.672C216.359 45.3147 217.305 41.4447 219.197 38.062C221.146 34.6793 223.783 32.042 227.109 30.15C230.434 28.258 234.275 27.312 238.633 27.312C244.079 27.312 248.666 28.7453 252.393 31.612C256.119 34.4213 258.499 38.32 259.531 43.308H247.921C247.347 41.244 246.201 39.6387 244.481 38.492C242.818 37.288 240.84 36.686 238.547 36.686C235.508 36.686 232.928 37.8327 230.807 40.126C228.685 42.4193 227.625 45.6013 227.625 49.672C227.625 53.7427 228.685 56.9247 230.807 59.218C232.928 61.5113 235.508 62.658 238.547 62.658C240.84 62.658 242.818 62.0847 244.481 60.938C246.201 59.7913 247.347 58.1573 247.921 56.036H259.531C258.499 60.852 256.119 64.722 252.393 67.646C248.666 70.57 244.079 72.032 238.633 72.032ZM287.719 71C283.247 71 279.664 69.9107 276.969 67.732C274.274 65.5533 272.927 61.6833 272.927 56.122V37.546H265.617V28.344H272.927L274.217 16.906H283.935V28.344H295.459V37.546H283.935V56.208C283.935 58.272 284.365 59.7053 285.225 60.508C286.142 61.2533 287.69 61.626 289.869 61.626H295.201V71H287.719ZM322.54 72.032C318.756 72.032 315.431 71.43 312.564 70.226C309.698 68.9647 307.404 67.2447 305.684 65.066C303.964 62.8873 302.932 60.3647 302.588 57.498H313.682C314.026 59.1607 314.944 60.594 316.434 61.798C317.982 62.9447 319.96 63.518 322.368 63.518C324.776 63.518 326.525 63.0307 327.614 62.056C328.761 61.0813 329.334 59.9633 329.334 58.702C329.334 56.8673 328.532 55.6347 326.926 55.004C325.321 54.316 323.085 53.6567 320.218 53.026C318.384 52.6247 316.52 52.1373 314.628 51.564C312.736 50.9907 310.988 50.274 309.382 49.414C307.834 48.4967 306.573 47.35 305.598 45.974C304.624 44.5407 304.136 42.792 304.136 40.728C304.136 36.944 305.627 33.762 308.608 31.182C311.647 28.602 315.89 27.312 321.336 27.312C326.382 27.312 330.395 28.4873 333.376 30.838C336.415 33.1887 338.221 36.428 338.794 40.556H328.388C327.758 37.4027 325.378 35.826 321.25 35.826C319.186 35.826 317.581 36.2273 316.434 37.03C315.345 37.8327 314.8 38.836 314.8 40.04C314.8 41.3013 315.632 42.3047 317.294 43.05C318.957 43.7953 321.164 44.4833 323.916 45.114C326.898 45.802 329.621 46.576 332.086 47.436C334.609 48.2387 336.616 49.4713 338.106 51.134C339.597 52.7393 340.342 55.0613 340.342 58.1C340.4 60.7373 339.712 63.1167 338.278 65.238C336.845 67.3593 334.781 69.022 332.086 70.226C329.392 71.43 326.21 72.032 322.54 72.032Z" fill="white"/>
<rect x="3" y="82" width="309" height="10" fill="white"/>
<circle cx="335.5" cy="87.5" r="8" fill="#0E1681" stroke="white" stroke-width="3"/>
</svg>
