<svg width="410" height="97" viewBox="0 0 410 97" fill="none" xmlns="http://www.w3.org/2000/svg">
<path d="M1.978 71L23.994 10.8H36.378L58.394 71H46.698L41.882 57.068H18.404L13.502 71H1.978ZM21.414 48.468H38.872L30.1 23.442L21.414 48.468ZM91.1748 72.032C87.9641 72.032 85.1548 71.43 82.7468 70.226C80.3388 69.022 78.3894 67.3307 76.8988 65.152L75.6948 71H65.8908V9.08H76.8988V34.45C78.2748 32.558 80.0808 30.8953 82.3168 29.462C84.6101 28.0287 87.5628 27.312 91.1748 27.312C95.1881 27.312 98.7714 28.2867 101.925 30.236C105.078 32.1853 107.572 34.8513 109.407 38.234C111.241 41.6167 112.159 45.458 112.159 49.758C112.159 54.058 111.241 57.8993 109.407 61.282C107.572 64.6073 105.078 67.2447 101.925 69.194C98.7714 71.086 95.1881 72.032 91.1748 72.032ZM88.8528 62.4C92.3501 62.4 95.2454 61.2247 97.5388 58.874C99.8321 56.5233 100.979 53.4847 100.979 49.758C100.979 46.0313 99.8321 42.964 97.5388 40.556C95.2454 38.148 92.3501 36.944 88.8528 36.944C85.2981 36.944 82.3741 38.148 80.0808 40.556C77.8448 42.9067 76.7268 45.9453 76.7268 49.672C76.7268 53.3987 77.8448 56.466 80.0808 58.874C82.3741 61.2247 85.2981 62.4 88.8528 62.4ZM142.46 72.032C138.332 72.032 134.606 71.086 131.28 69.194C128.012 67.302 125.404 64.6933 123.454 61.368C121.562 57.9853 120.616 54.0867 120.616 49.672C120.616 45.2573 121.591 41.3873 123.54 38.062C125.49 34.6793 128.098 32.042 131.366 30.15C134.692 28.258 138.418 27.312 142.546 27.312C146.617 27.312 150.286 28.258 153.554 30.15C156.88 32.042 159.488 34.6793 161.38 38.062C163.33 41.3873 164.304 45.2573 164.304 49.672C164.304 54.0867 163.33 57.9853 161.38 61.368C159.488 64.6933 156.88 67.302 153.554 69.194C150.229 71.086 146.531 72.032 142.46 72.032ZM142.46 62.486C145.327 62.486 147.821 61.4253 149.942 59.304C152.064 57.1253 153.124 53.9147 153.124 49.672C153.124 45.4293 152.064 42.2473 149.942 40.126C147.821 37.9473 145.356 36.858 142.546 36.858C139.622 36.858 137.1 37.9473 134.978 40.126C132.914 42.2473 131.882 45.4293 131.882 49.672C131.882 53.9147 132.914 57.1253 134.978 59.304C137.1 61.4253 139.594 62.486 142.46 62.486ZM190.143 72.032C184.811 72.032 180.683 70.3693 177.759 67.044C174.892 63.7187 173.459 58.8453 173.459 52.424V28.344H184.381V51.392C184.381 55.0613 185.126 57.8707 186.617 59.82C188.107 61.7693 190.458 62.744 193.669 62.744C196.707 62.744 199.201 61.6547 201.151 59.476C203.157 57.2973 204.161 54.2587 204.161 50.36V28.344H215.169V71H205.451L204.591 63.776C203.272 66.2987 201.351 68.3053 198.829 69.796C196.363 71.2867 193.468 72.032 190.143 72.032ZM245.475 71C241.003 71 237.42 69.9107 234.725 67.732C232.03 65.5533 230.683 61.6833 230.683 56.122V37.546H223.373V28.344H230.683L231.973 16.906H241.691V28.344H253.215V37.546H241.691V56.208C241.691 58.272 242.121 59.7053 242.981 60.508C243.898 61.2533 245.446 61.626 247.625 61.626H252.957V71H245.475ZM283.158 71V28.344H292.876L293.822 34.106C295.198 32.042 297.004 30.408 299.24 29.204C301.534 27.9427 304.171 27.312 307.152 27.312C313.746 27.312 318.418 29.8633 321.17 34.966C322.718 32.6153 324.782 30.752 327.362 29.376C330 28 332.866 27.312 335.962 27.312C341.524 27.312 345.795 28.9747 348.776 32.3C351.758 35.6253 353.248 40.4987 353.248 46.92V71H342.24V47.952C342.24 44.2827 341.524 41.4733 340.09 39.524C338.714 37.5747 336.564 36.6 333.64 36.6C330.659 36.6 328.251 37.6893 326.416 39.868C324.639 42.0467 323.75 45.0853 323.75 48.984V71H312.742V47.952C312.742 44.2827 312.026 41.4733 310.592 39.524C309.159 37.5747 306.952 36.6 303.97 36.6C301.046 36.6 298.667 37.6893 296.832 39.868C295.055 42.0467 294.166 45.0853 294.166 48.984V71H283.158ZM384.425 72.032C380.125 72.032 376.313 71.1147 372.987 69.28C369.662 67.4453 367.053 64.8653 365.161 61.54C363.269 58.2147 362.323 54.3733 362.323 50.016C362.323 45.6013 363.241 41.674 365.075 38.234C366.967 34.794 369.547 32.128 372.815 30.236C376.141 28.2867 380.039 27.312 384.511 27.312C388.697 27.312 392.395 28.2293 395.605 30.064C398.816 31.8987 401.31 34.4213 403.087 37.632C404.922 40.7853 405.839 44.3113 405.839 48.21C405.839 48.8407 405.811 49.5 405.753 50.188C405.753 50.876 405.725 51.5927 405.667 52.338H373.245C373.475 55.6633 374.621 58.272 376.685 60.164C378.807 62.056 381.358 63.002 384.339 63.002C386.575 63.002 388.439 62.5147 389.929 61.54C391.477 60.508 392.624 59.1893 393.369 57.584H404.549C403.747 60.2787 402.399 62.744 400.507 64.98C398.673 67.1587 396.379 68.8787 393.627 70.14C390.933 71.4013 387.865 72.032 384.425 72.032ZM384.511 36.256C381.817 36.256 379.437 37.03 377.373 38.578C375.309 40.0687 373.991 42.362 373.417 45.458H394.659C394.487 42.6487 393.455 40.4127 391.563 38.75C389.671 37.0873 387.321 36.256 384.511 36.256Z" fill="black"/>
<rect x="3" y="82" width="381" height="10" fill="black"/>
<circle cx="400.5" cy="87.5" r="6.5" fill="white" stroke="#0038FF" stroke-width="6"/>
</svg>
