<svg width="40" height="40" viewBox="0 0 40 40" fill="none" xmlns="http://www.w3.org/2000/svg">
<path d="M11.3143 3.77838L13.6857 3.0641C14.7652 2.73842 15.9264 2.81671 16.9524 3.28437C17.9784 3.75203 18.7992 4.57709 19.2615 5.60553L20.7372 8.88838C21.1348 9.77276 21.2456 10.7594 21.0539 11.71C20.8623 12.6605 20.3779 13.5272 19.6686 14.1884L17.09 16.5927C17.0582 16.6224 17.032 16.6578 17.0129 16.697C16.7429 17.2484 17.1529 18.7212 18.4372 20.947C19.8857 23.4555 21.0043 24.447 21.5229 24.2941L24.9072 23.2584C25.834 22.9754 26.8262 22.9894 27.7446 23.2987C28.663 23.6079 29.4617 24.1967 30.0286 24.9827L32.1257 27.887C32.7841 28.7989 33.0891 29.9188 32.984 31.0386C32.8789 32.1584 32.3709 33.202 31.5543 33.9755L29.75 35.6827C29.1226 36.277 28.3607 36.7107 27.5294 36.9468C26.698 37.1828 25.8219 37.2143 24.9757 37.0384C19.9515 35.9927 15.45 31.947 11.4329 24.9898C7.41432 18.0284 6.16146 12.0998 7.77574 7.2241C8.04597 6.40782 8.5087 5.66858 9.12486 5.06884C9.74101 4.46909 10.4925 4.02648 11.3157 3.77838H11.3143ZM11.9343 5.82981C11.4403 5.9786 10.9894 6.24411 10.6197 6.6039C10.2499 6.9637 9.97223 7.40721 9.81003 7.89695C8.4186 12.0984 9.54574 17.4355 13.2886 23.9184C17.0286 30.397 21.0829 34.0398 25.4115 34.9398C25.9194 35.0454 26.4453 35.0265 26.9444 34.8847C27.4434 34.7429 27.9007 34.4824 28.2772 34.1255L30.08 32.4198C30.5199 32.0034 30.7936 31.4415 30.8504 30.8385C30.9071 30.2355 30.743 29.6324 30.3886 29.1412L28.2915 26.2355C27.9862 25.8124 27.5563 25.4954 27.0619 25.3289C26.5674 25.1624 26.0333 25.1547 25.5343 25.307L22.1415 26.3455C20.2643 26.9041 18.4986 25.3398 16.5815 22.017C14.9572 19.2055 14.3943 17.1741 15.0886 15.7555C15.2229 15.4812 15.4057 15.2341 15.6286 15.0255L18.2072 12.6212C18.5892 12.2652 18.8502 11.7985 18.9535 11.2866C19.0567 10.7746 18.9971 10.2432 18.7829 9.76695L17.3072 6.48553C17.0583 5.93161 16.6162 5.48724 16.0636 5.23539C15.511 4.98354 14.8857 4.94145 14.3043 5.11695L11.9329 5.83124L11.9343 5.82981Z" fill="black"/>
</svg>
