<svg width="213" height="48" viewBox="0 0 213 48" fill="none" xmlns="http://www.w3.org/2000/svg">
<path d="M11.3464 37.3326C9.57236 37.3326 7.99544 36.9877 6.61564 36.2978C5.26048 35.5832 4.201 34.5854 3.43718 33.3041C2.698 31.9982 2.32841 30.5076 2.32841 28.8321V19.2597C2.32841 17.5843 2.698 16.1182 3.43718 14.8616C4.201 13.5804 5.26048 12.5948 6.61564 11.9049C7.99544 11.1904 9.57236 10.8331 11.3464 10.8331C13.1204 10.8331 14.685 11.178 16.0402 11.8679C17.3953 12.5332 18.4425 13.4818 19.1817 14.7138C19.9455 15.9457 20.3274 17.3748 20.3274 19.001V19.038C20.3274 19.1612 20.2904 19.2597 20.2165 19.3336C20.1426 19.4076 20.0564 19.4445 19.9578 19.4445L17.1489 19.5924C16.9025 19.5924 16.7793 19.4815 16.7793 19.2597V19.1488C16.7793 17.5719 16.2866 16.303 15.301 15.3421C14.3154 14.3812 12.9972 13.9007 11.3464 13.9007C9.69555 13.9007 8.36503 14.3812 7.35482 15.3421C6.36925 16.303 5.87647 17.5719 5.87647 19.1488V28.9799C5.87647 30.5568 6.36925 31.8258 7.35482 32.7867C8.36503 33.7476 9.69555 34.2281 11.3464 34.2281C12.9972 34.2281 14.3154 33.7476 15.301 32.7867C16.2866 31.8258 16.7793 30.5568 16.7793 28.9799V28.906C16.7793 28.6842 16.9025 28.5734 17.1489 28.5734L19.9578 28.7212C20.2042 28.7212 20.3274 28.8444 20.3274 29.0908C20.3274 30.717 19.9455 32.1584 19.1817 33.415C18.4425 34.6469 17.3953 35.6079 16.0402 36.2978C14.685 36.9877 13.1204 37.3326 11.3464 37.3326ZM38.3708 37C38.1245 37 38.0013 36.8768 38.0013 36.6304V11.4984C38.0013 11.252 38.1245 11.1288 38.3708 11.1288H41.1797C41.4261 11.1288 41.5493 11.252 41.5493 11.4984V36.6304C41.5493 36.8768 41.4261 37 41.1797 37H38.3708ZM43.7429 37C43.4965 37 43.3733 36.8768 43.3733 36.6304V11.4984C43.3733 11.252 43.4965 11.1288 43.7429 11.1288H46.5518C46.7982 11.1288 46.9213 11.252 46.9213 11.4984V36.6304C46.9213 36.8768 46.7982 37 46.5518 37H43.7429ZM50.8889 15.2312C50.199 15.2312 49.6323 15.0095 49.1888 14.5659C48.7453 14.1224 48.5236 13.5557 48.5236 12.8658C48.5236 12.1759 48.7453 11.6092 49.1888 11.1657C49.6323 10.7222 50.199 10.5005 50.8889 10.5005C51.5788 10.5005 52.1455 10.7222 52.5891 11.1657C53.0326 11.6092 53.2543 12.1759 53.2543 12.8658C53.2543 13.5557 53.0326 14.1224 52.5891 14.5659C52.1455 15.0095 51.5788 15.2312 50.8889 15.2312ZM49.4106 36.963C49.1642 36.963 49.041 36.8398 49.041 36.5935V18.5575C49.041 18.3111 49.1642 18.1879 49.4106 18.1879H52.2195C52.4659 18.1879 52.5891 18.3111 52.5891 18.5575V36.5935C52.5891 36.8398 52.4659 36.963 52.2195 36.963H49.4106ZM63.2289 17.9292C65.2493 17.9292 66.8509 18.5205 68.0335 19.7032C69.2162 20.8613 69.8076 22.4382 69.8076 24.434V36.6304C69.8076 36.8768 69.6844 37 69.438 37H66.6291C66.3827 37 66.2595 36.8768 66.2595 36.6304V25.1362C66.2595 23.9042 65.9023 22.9063 65.1877 22.1425C64.4732 21.3787 63.5246 20.9968 62.3419 20.9968C61.1838 20.9968 60.2352 21.3787 59.496 22.1425C58.7569 22.9063 58.3873 23.8919 58.3873 25.0992V36.6304C58.3873 36.8768 58.2641 37 58.0177 37H55.2088C54.9624 37 54.8392 36.8768 54.8392 36.6304V18.5575C54.8392 18.3111 54.9624 18.1879 55.2088 18.1879H58.0177C58.2641 18.1879 58.3873 18.3111 58.3873 18.5575V19.888C58.3873 19.9373 58.3996 19.9743 58.4242 19.9989C58.4735 20.0235 58.5105 20.0112 58.5351 19.9619C59.5946 18.6068 61.1592 17.9292 63.2289 17.9292ZM78.16 37.2218C76.6816 37.2218 75.3758 37 74.2424 36.5565C73.1336 36.113 72.2712 35.5093 71.6552 34.7455C71.0392 33.9571 70.7313 33.0947 70.7313 32.1584V31.7518C70.7313 31.5054 70.8545 31.3822 71.1008 31.3822H73.7619C74.0083 31.3822 74.1315 31.5054 74.1315 31.7518V31.9366C74.1315 32.6265 74.5011 33.2302 75.2402 33.7476C76.0041 34.265 76.965 34.5238 78.123 34.5238C79.2318 34.5238 80.1311 34.2897 80.821 33.8215C81.5109 33.3287 81.8559 32.7128 81.8559 31.9736C81.8559 31.259 81.5356 30.7293 80.895 30.3844C80.2543 30.0148 79.2195 29.6329 77.7904 29.2386C76.386 28.8444 75.2033 28.4502 74.2424 28.0559C73.3061 27.6371 72.5053 27.0581 71.84 26.3189C71.1994 25.5551 70.8791 24.5818 70.8791 23.3991C70.8791 21.7483 71.5197 20.4424 72.801 19.4815C74.1068 18.4959 75.8316 18.0031 77.9752 18.0031C79.4043 18.0031 80.6609 18.2372 81.745 18.7053C82.8538 19.1488 83.7038 19.7771 84.2952 20.5902C84.8865 21.4033 85.1822 22.315 85.1822 23.3252V23.4361C85.1822 23.6825 85.059 23.8057 84.8126 23.8057H82.2255C81.9791 23.8057 81.8559 23.6825 81.8559 23.4361V23.3252C81.8559 22.6107 81.4986 22.0193 80.7841 21.5512C80.0942 21.0584 79.1456 20.812 77.9382 20.812C76.8541 20.812 75.9671 21.0214 75.2772 21.4403C74.6119 21.8592 74.2793 22.4259 74.2793 23.1404C74.2793 23.8549 74.5996 24.397 75.2402 24.7666C75.9055 25.1362 76.965 25.5304 78.4187 25.9493C79.8478 26.3435 81.0305 26.7377 81.9668 27.132C82.9277 27.5016 83.7408 28.0683 84.4061 28.8321C85.0713 29.5713 85.4039 30.5445 85.4039 31.7518C85.4039 33.4273 84.7387 34.7578 83.4082 35.7434C82.1023 36.729 80.3529 37.2218 78.16 37.2218ZM96.0296 37C95.8079 37 95.6724 36.9014 95.6231 36.7043L88.6748 11.5353L88.6378 11.4244C88.6378 11.2273 88.761 11.1288 89.0074 11.1288H92.0011C92.2229 11.1288 92.3584 11.2396 92.4077 11.4614L97.2493 29.8669C97.2739 29.9162 97.2986 29.9408 97.3232 29.9408C97.3725 29.9408 97.4094 29.9162 97.4341 29.8669L102.017 11.4614C102.066 11.2396 102.202 11.1288 102.424 11.1288H105.343C105.565 11.1288 105.701 11.2396 105.75 11.4614L110.591 29.9039C110.616 29.9532 110.641 29.9778 110.665 29.9778C110.69 29.9778 110.715 29.9532 110.739 29.9039L115.618 11.4614C115.667 11.2396 115.803 11.1288 116.024 11.1288H118.833C118.956 11.1288 119.043 11.1657 119.092 11.2396C119.166 11.3136 119.191 11.4121 119.166 11.5353L112.476 36.6674C112.427 36.8891 112.292 37 112.07 37H109.224C109.002 37 108.867 36.8891 108.817 36.6674L103.976 17.5966C103.951 17.5227 103.927 17.4857 103.902 17.4857C103.877 17.4857 103.853 17.5227 103.828 17.5966L99.1342 36.6674C99.1095 36.8891 98.974 37 98.7276 37H96.0296ZM124.383 17.8922C125.886 17.8922 127.192 18.1633 128.301 18.7053C129.435 19.2228 130.297 19.9619 130.888 20.9229C131.504 21.8592 131.812 22.931 131.812 24.1383V36.6304C131.812 36.8768 131.689 37 131.443 37H128.634C128.387 37 128.264 36.8768 128.264 36.6304V35.2999C128.264 35.1767 128.203 35.1521 128.079 35.226C127.439 35.8912 126.65 36.4087 125.714 36.7782C124.802 37.1232 123.78 37.2957 122.646 37.2957C120.823 37.2957 119.308 36.8398 118.1 35.9282C116.918 34.9919 116.326 33.5875 116.326 31.7149C116.326 29.793 116.992 28.29 118.322 27.2059C119.677 26.0971 121.562 25.5427 123.977 25.5427H128.116C128.215 25.5427 128.264 25.4935 128.264 25.3949V24.397C128.264 23.3129 127.944 22.4752 127.303 21.8838C126.687 21.2678 125.739 20.9598 124.457 20.9598C123.423 20.9598 122.572 21.1693 121.907 21.5881C121.267 21.9824 120.872 22.5244 120.725 23.2143C120.651 23.4607 120.503 23.5716 120.281 23.547L117.287 23.1404C117.041 23.0911 116.93 22.9926 116.955 22.8447C117.152 21.391 117.928 20.2083 119.283 19.2967C120.638 18.3604 122.338 17.8922 124.383 17.8922ZM123.423 34.302C124.728 34.302 125.862 33.9571 126.823 33.2672C127.784 32.5773 128.264 31.7026 128.264 30.6431V28.4625C128.264 28.3639 128.215 28.3147 128.116 28.3147H124.642C123.188 28.3147 122.03 28.598 121.168 29.1647C120.306 29.7314 119.874 30.5199 119.874 31.5301C119.874 32.4417 120.195 33.1316 120.835 33.5998C121.501 34.0679 122.363 34.302 123.423 34.302ZM141.666 17.9292C143.686 17.9292 145.287 18.5205 146.47 19.7032C147.653 20.8613 148.244 22.4382 148.244 24.434V36.6304C148.244 36.8768 148.121 37 147.875 37H145.066C144.819 37 144.696 36.8768 144.696 36.6304V25.1362C144.696 23.9042 144.339 22.9063 143.624 22.1425C142.91 21.3787 141.961 20.9968 140.778 20.9968C139.62 20.9968 138.672 21.3787 137.933 22.1425C137.193 22.9063 136.824 23.8919 136.824 25.0992V36.6304C136.824 36.8768 136.701 37 136.454 37H133.645C133.399 37 133.276 36.8768 133.276 36.6304V18.5575C133.276 18.3111 133.399 18.1879 133.645 18.1879H136.454C136.701 18.1879 136.824 18.3111 136.824 18.5575V19.888C136.824 19.9373 136.836 19.9743 136.861 19.9989C136.91 20.0235 136.947 20.0112 136.972 19.9619C138.031 18.6068 139.596 17.9292 141.666 17.9292ZM157.188 31.2344C156.153 31.2344 155.204 31.0989 154.342 30.8279L152.494 32.5649C152.765 32.762 153.098 32.9345 153.492 33.0824C153.911 33.2056 154.502 33.3287 155.266 33.4519C156.03 33.5505 157.102 33.6614 158.482 33.7846C160.945 33.9571 162.707 34.5238 163.767 35.4847C164.826 36.4456 165.356 37.7022 165.356 39.2545C165.356 40.314 165.06 41.3242 164.469 42.2851C163.902 43.2461 163.015 44.0345 161.808 44.6505C160.625 45.2665 159.097 45.5745 157.225 45.5745C155.574 45.5745 154.108 45.3527 152.827 44.9092C151.546 44.4903 150.548 43.8374 149.833 42.9504C149.119 42.088 148.761 40.9916 148.761 39.661C148.761 38.9711 148.946 38.2196 149.316 37.4065C149.685 36.6181 150.375 35.8666 151.385 35.1521C150.843 34.9303 150.375 34.6962 149.981 34.4498C149.611 34.1788 149.266 33.8831 148.946 33.5628V32.7128L152.088 29.6082C150.634 28.3763 149.907 26.7501 149.907 24.7296C149.907 23.5223 150.19 22.4259 150.757 21.4403C151.324 20.4547 152.149 19.6786 153.233 19.1119C154.317 18.5205 155.636 18.2249 157.188 18.2249C158.247 18.2249 159.208 18.3727 160.071 18.6684H166.834V20.9968L163.397 21.1446C164.112 22.1795 164.469 23.3745 164.469 24.7296C164.469 25.937 164.173 27.0334 163.582 28.019C163.015 29.0046 162.19 29.793 161.106 30.3844C160.046 30.9511 158.74 31.2344 157.188 31.2344ZM157.188 28.6842C158.494 28.6842 159.529 28.3516 160.293 27.6864C161.081 26.9965 161.475 26.0109 161.475 24.7296C161.475 23.473 161.081 22.5121 160.293 21.8468C159.529 21.1569 158.494 20.812 157.188 20.812C155.857 20.812 154.798 21.1569 154.009 21.8468C153.246 22.5121 152.864 23.473 152.864 24.7296C152.864 26.0109 153.246 26.9965 154.009 27.6864C154.798 28.3516 155.857 28.6842 157.188 28.6842ZM151.792 39.3654C151.792 40.5973 152.309 41.509 153.344 42.1003C154.379 42.7163 155.673 43.0243 157.225 43.0243C158.753 43.0243 159.972 42.6917 160.884 42.0264C161.82 41.3612 162.288 40.4741 162.288 39.3654C162.288 38.5769 161.968 37.887 161.327 37.2957C160.687 36.729 159.504 36.3963 157.779 36.2978C156.424 36.1992 155.254 36.076 154.268 35.9282C153.258 36.4703 152.593 37.0493 152.272 37.6653C151.952 38.3059 151.792 38.8726 151.792 39.3654ZM182.274 25.2471C182.373 26.2573 182.41 27.3907 182.385 28.6473C182.385 28.8937 182.262 29.0169 182.015 29.0169H170.225C170.127 29.0169 170.078 29.0662 170.078 29.1647C170.078 30.0024 170.152 30.6431 170.299 31.0866C170.57 32.0721 171.113 32.8483 171.926 33.415C172.763 33.9571 173.811 34.2281 175.067 34.2281C176.89 34.2281 178.295 33.4766 179.28 31.9736C179.404 31.7272 179.564 31.6902 179.761 31.8627L181.868 33.2672C182.04 33.415 182.077 33.5751 181.978 33.7476C181.289 34.8564 180.303 35.7311 179.022 36.3717C177.765 37.0123 176.336 37.3326 174.734 37.3326C172.936 37.3326 171.42 36.9384 170.189 36.1499C168.957 35.3615 168.033 34.2404 167.417 32.7867C166.825 31.333 166.53 29.5713 166.53 27.5016C166.53 25.7029 166.665 24.3354 166.936 23.3991C167.38 21.699 168.267 20.3562 169.597 19.3706C170.928 18.385 172.542 17.8922 174.439 17.8922C176.927 17.8922 178.788 18.5205 180.02 19.7771C181.252 21.0091 182.003 22.8324 182.274 25.2471ZM174.439 20.9598C173.379 20.9598 172.505 21.2309 171.815 21.7729C171.125 22.2904 170.657 22.9926 170.41 23.8796C170.238 24.4217 170.127 25.1116 170.078 25.9493C170.078 26.0478 170.127 26.0971 170.225 26.0971H178.689C178.788 26.0971 178.837 26.0478 178.837 25.9493C178.788 25.1362 178.714 24.5325 178.615 24.1383C178.369 23.1774 177.876 22.4136 177.137 21.8468C176.422 21.2555 175.523 20.9598 174.439 20.9598ZM183.905 37C183.659 37 183.536 36.8768 183.536 36.6304V11.4984C183.536 11.252 183.659 11.1288 183.905 11.1288H186.714C186.96 11.1288 187.084 11.252 187.084 11.4984V25.7275C187.084 25.7768 187.108 25.8138 187.158 25.8384C187.207 25.863 187.244 25.8507 187.268 25.8015L194.106 18.3727C194.204 18.2495 194.352 18.1879 194.549 18.1879H197.839C197.987 18.1879 198.073 18.2372 198.097 18.3358C198.147 18.4097 198.122 18.5082 198.024 18.6314L193.256 24.1383C193.207 24.2369 193.194 24.3108 193.219 24.3601L198.874 36.5565L198.911 36.7043C198.911 36.9014 198.8 37 198.578 37H195.621C195.424 37 195.289 36.9014 195.215 36.7043L190.817 26.6515C190.767 26.5283 190.706 26.516 190.632 26.6145L187.158 30.4583C187.108 30.5568 187.084 30.6184 187.084 30.6431V36.6304C187.084 36.8768 186.96 37 186.714 37H183.905ZM201.265 15.2312C200.576 15.2312 200.009 15.0095 199.565 14.5659C199.122 14.1224 198.9 13.5557 198.9 12.8658C198.9 12.1759 199.122 11.6092 199.565 11.1657C200.009 10.7222 200.576 10.5005 201.265 10.5005C201.955 10.5005 202.522 10.7222 202.966 11.1657C203.409 11.6092 203.631 12.1759 203.631 12.8658C203.631 13.5557 203.409 14.1224 202.966 14.5659C202.522 15.0095 201.955 15.2312 201.265 15.2312ZM199.787 36.963C199.541 36.963 199.418 36.8398 199.418 36.5935V18.5575C199.418 18.3111 199.541 18.1879 199.787 18.1879H202.596C202.842 18.1879 202.966 18.3111 202.966 18.5575V36.5935C202.966 36.8398 202.842 36.963 202.596 36.963H199.787ZM207.618 37C206.928 37 206.361 36.7782 205.918 36.3347C205.474 35.8912 205.253 35.3245 205.253 34.6346C205.253 33.9447 205.474 33.378 205.918 32.9345C206.361 32.491 206.928 32.2693 207.618 32.2693C208.308 32.2693 208.875 32.491 209.318 32.9345C209.762 33.378 209.983 33.9447 209.983 34.6346C209.983 35.3245 209.762 35.8912 209.318 36.3347C208.875 36.7782 208.308 37 207.618 37Z" fill="black"/>
<ellipse cx="28.9837" cy="25.1905" rx="5.44658" ry="7.48904" fill="white" stroke="black" stroke-width="2.91781"/>
<rect x="22.9531" y="35.7917" width="11.8658" height="1.94521" fill="black"/>
</svg>
